<svg xmlns="http://www.w3.org/2000/svg" xmlns:xlink="http://www.w3.org/1999/xlink" width="598pt" height="840" viewBox="0 0 598 630"><g id="graph0" class="graph" transform="scale(1 1) rotate(0) translate(4 626)"><title>%3</title><polygon fill="#fff" stroke="transparent" points="-4 4 -4 -626 594 -626 594 4 -4 4"/><text x="295" y="-7.8" font-family="Noto Sans" font-size="14" text-anchor="middle">Noop Flow Diagram</text><g id="clust1" class="cluster"><title>cluster_1</title><polygon fill="none" stroke="#000" stroke-width="0" points="8 -31 8 -513 502 -513 502 -31 8 -31"/></g><g id="clust3" class="cluster"><title>cluster_1a</title><polygon fill="none" stroke="#000" points="208 -250 208 -398 494 -398 494 -250 208 -250"/><text x="351" y="-382.8" font-family="Noto Sans" font-size="14" text-anchor="middle">Noop commits</text></g><g id="node1" class="node"><title>commits_left</title><polygon fill="none" stroke="#000" points="370 -505 258 -471 370 -437 482 -471 370 -505"/><text x="370" y="-474.4" font-family="Noto Sans" font-size="12" text-anchor="middle">Any commits left</text><text x="370" y="-461.4" font-family="Noto Sans" font-size="12" text-anchor="middle">to noop?</text></g><g id="node6" class="node"><title>noop</title><polygon fill="none" stroke="#000" points="409.5 -367 256.5 -367 256.5 -331 409.5 -331 409.5 -367"/><text x="333" y="-352.4" font-family="Noto Sans" font-size="12" text-anchor="middle">Noop commit &amp; parents</text><text x="333" y="-339.4" font-family="Noto Sans" font-size="12" text-anchor="middle">of commit</text></g><g id="edge2" class="edge"><title>commits_left:s-&gt;noop</title><path fill="none" stroke="#000" d="M370,-437C370,-427.1 367.94,-417.03 364.8,-407.42"/><polygon fill="#000" stroke="#000" points="368.07 -406.17 361.33 -398 361.5 -408.59 368.07 -406.17"/><text x="376.5" y="-409.4" font-family="Noto Sans" font-size="12" text-anchor="middle">Yes</text></g><g id="node12" class="node"><title>end</title><ellipse cx="537" cy="-349" fill="none" stroke="#000" rx="27" ry="18"/><text x="537" y="-345.9" font-family="Noto Sans" font-size="12" text-anchor="middle">End</text></g><g id="edge13" class="edge"><title>commits_left:e-&gt;end</title><path fill="none" stroke="#000" d="M483,-471C512.98,-471 488.76,-433.36 501,-406 505.99,-394.85 512.99,-383.37 519.5,-373.72"/><polygon fill="#000" stroke="#000" points="522.42 -375.65 525.26 -365.45 516.67 -371.65 522.42 -375.65"/><text x="509.5" y="-409.4" font-family="Noto Sans" font-size="12" text-anchor="middle">No</text></g><g id="node2" class="node"><title>loop_update</title><polygon fill="none" stroke="#000" points="145.5 -75 34.5 -75 34.5 -39 145.5 -39 145.5 -75"/><text x="90" y="-60.4" font-family="Noto Sans" font-size="12" text-anchor="middle">Update commits</text><text x="90" y="-47.4" font-family="Noto Sans" font-size="12" text-anchor="middle">to noop</text></g><g id="edge5" class="edge"><title>loop_update-&gt;commits_left:w</title><path fill="none" stroke="#000" d="M55.64,-75.14C36.7,-87.24 17,-105.49 17,-129 17,-350 17,-350 17,-350 17,-466.07 130.81,-470.82 246.85,-470.99"/><polygon fill="#000" stroke="#000" points="247 -474.49 257 -471 247 -467.49 247 -474.49"/></g><g id="node3" class="node"><title>create_delta_noops</title><polygon fill="none" stroke="#000" points="197.5 -294 36.5 -294 36.5 -258 197.5 -258 197.5 -294"/><text x="117" y="-279.4" font-family="Noto Sans" font-size="12" text-anchor="middle">Create a delta noop by</text><text x="117" y="-266.4" font-family="Noto Sans" font-size="12" text-anchor="middle">subtracting parent noops</text></g><g id="node4" class="node"><title>aggregate_noops</title><polygon fill="none" stroke="#000" points="183.5 -221 46.5 -221 46.5 -185 183.5 -185 183.5 -221"/><text x="115" y="-206.4" font-family="Noto Sans" font-size="12" text-anchor="middle">Aggregate the noops</text><text x="115" y="-193.4" font-family="Noto Sans" font-size="12" text-anchor="middle">by Puppet resource</text></g><g id="edge3" class="edge"><title>create_delta_noops-&gt;aggregate_noops</title><path fill="none" stroke="#000" d="M116.52,-257.81C116.29,-249.79 116.02,-240.05 115.76,-231.07"/><polygon fill="#000" stroke="#000" points="119.26 -230.93 115.48 -221.03 112.26 -231.12 119.26 -230.93"/></g><g id="node5" class="node"><title>create_github_issue</title><polygon fill="none" stroke="#000" points="178.5 -148 39.5 -148 39.5 -112 178.5 -112 178.5 -148"/><text x="109" y="-133.4" font-family="Noto Sans" font-size="12" text-anchor="middle">Create a GitHub issue</text><text x="109" y="-120.4" font-family="Noto Sans" font-size="12" text-anchor="middle">for the commit</text></g><g id="edge1" class="edge"><title>aggregate_noops-&gt;create_github_issue</title><path fill="none" stroke="#000" d="M113.55,-184.81C112.87,-176.79 112.05,-167.05 111.29,-158.07"/><polygon fill="#000" stroke="#000" points="114.77 -157.7 110.44 -148.03 107.79 -158.29 114.77 -157.7"/></g><g id="edge4" class="edge"><title>create_github_issue-&gt;loop_update</title><path fill="none" stroke="#000" d="M104.4,-111.81C102.23,-103.7 99.59,-93.84 97.17,-84.78"/><polygon fill="#000" stroke="#000" points="100.52 -83.78 94.56 -75.03 93.76 -85.59 100.52 -83.78"/></g><g id="edge6" class="edge"><title>noop-&gt;create_delta_noops</title><path fill="none" stroke="#000" d="M208,-306.91C197.98,-303.62 188.15,-300.39 178.88,-297.34"/><polygon fill="#000" stroke="#000" points="179.66 -293.91 169.06 -294.11 177.47 -300.56 179.66 -293.91"/></g><g id="node7" class="node"><title>noop_node1</title><polygon fill="none" stroke="#000" points="270 -294 216 -294 216 -258 270 -258 270 -294"/><text x="243" y="-272.9" font-family="Noto Sans" font-size="12" text-anchor="middle">node1</text></g><g id="edge7" class="edge"><title>noop-&gt;noop_node1</title><path fill="none" stroke="#000" d="M311.21,-330.81C299.61,-321.66 285.16,-310.26 272.56,-300.32"/><polygon fill="#000" stroke="#000" points="274.6 -297.47 264.59 -294.03 270.27 -302.97 274.6 -297.47"/></g><g id="node8" class="node"><title>noop_node2</title><polygon fill="none" stroke="#000" points="342 -294 288 -294 288 -258 342 -258 342 -294"/><text x="315" y="-272.9" font-family="Noto Sans" font-size="12" text-anchor="middle">node2</text></g><g id="edge8" class="edge"><title>noop-&gt;noop_node2</title><path fill="none" stroke="#000" d="M328.64,-330.81C326.59,-322.7 324.09,-312.84 321.79,-303.78"/><polygon fill="#000" stroke="#000" points="325.17 -302.86 319.32 -294.03 318.38 -304.58 325.17 -302.86"/></g><g id="node9" class="node"><title>noop_node3</title><polygon fill="none" stroke="#000" points="414 -294 360 -294 360 -258 414 -258 414 -294"/><text x="387" y="-272.9" font-family="Noto Sans" font-size="12" text-anchor="middle">node3</text></g><g id="edge9" class="edge"><title>noop-&gt;noop_node3</title><path fill="none" stroke="#000" d="M346.07,-330.81C352.64,-322.18 360.72,-311.56 367.96,-302.03"/><polygon fill="#000" stroke="#000" points="370.78 -304.11 374.05 -294.03 365.21 -299.87 370.78 -304.11"/></g><g id="node10" class="node"><title>noop_node_elipsis</title><polygon fill="none" stroke="#000" points="486 -294 432 -294 432 -258 486 -258 486 -294"/><text x="459" y="-272.9" font-family="Noto Sans" font-size="12" text-anchor="middle">...</text></g><g id="edge10" class="edge"><title>noop-&gt;noop_node_elipsis</title><path fill="none" stroke="#000" d="M363.18,-330.99C381.07,-320.91 403.87,-308.07 422.74,-297.43"/><polygon fill="#000" stroke="#000" points="424.65 -300.37 431.64 -292.41 421.21 -294.27 424.65 -300.37"/></g><g id="node11" class="node"><title>any_new_commits</title><polygon fill="none" stroke="#000" points="404 -622 287 -588 404 -554 521 -588 404 -622"/><text x="404" y="-591.4" font-family="Noto Sans" font-size="12" text-anchor="middle">Any new commits</text><text x="404" y="-578.4" font-family="Noto Sans" font-size="12" text-anchor="middle">since last tag?</text></g><g id="edge11" class="edge"><title>any_new_commits-&gt;commits_left</title><path fill="none" stroke="#000" d="M394.98,-556.48C390.98,-542.97 386.23,-526.88 381.94,-512.39"/><polygon fill="#000" stroke="#000" points="385.26 -511.26 379.06 -502.66 378.54 -513.24 385.26 -511.26"/><text x="397.5" y="-526.4" font-family="Noto Sans" font-size="12" text-anchor="middle">Yes</text></g><g id="edge12" class="edge"><title>any_new_commits:e-&gt;end</title><path fill="none" stroke="#000" d="M522,-588C605.95,-588 566.32,-438.69 546.21,-376.59"/><polygon fill="#000" stroke="#000" points="549.41 -375.13 542.95 -366.74 542.77 -377.33 549.41 -375.13"/><text x="581.5" y="-467.9" font-family="Noto Sans" font-size="12" text-anchor="middle">No</text></g></g></svg>