<svg xmlns="http://www.w3.org/2000/svg" xmlns:xlink="http://www.w3.org/1999/xlink" width="280pt" height="371pt" viewBox="0 0 280.03 371.02"><g id="graph0" class="graph" transform="scale(1 1) rotate(0) translate(4 367.02)"><title>%3</title><polygon fill="#fff" stroke="transparent" points="-4 4 -4 -367.02 276.03 -367.02 276.03 4 -4 4"/><text x="136.01" y="-7.8" font-family="Noto Sans" font-size="14" text-anchor="middle">Commit F not in Node1&apos;s lineage</text><g id="node1" class="node"><title>A</title><ellipse cx="133.25" cy="-41" fill="none" stroke="#000" rx="27" ry="18"/><text x="133.25" y="-37.9" font-family="Noto Sans" font-size="12" text-anchor="middle">A</text></g><g id="node2" class="node"><title>B</title><ellipse cx="74.25" cy="-141.23" fill="none" stroke="#000" rx="74.49" ry="33.47"/><text x="74.25" y="-151.13" font-family="Noto Sans" font-size="12" text-anchor="middle">B</text><text x="74.25" y="-138.13" font-family="Noto Sans" font-size="12" text-anchor="middle">Node1&apos;s last</text><text x="74.25" y="-125.13" font-family="Noto Sans" font-size="12" text-anchor="middle">applied commit</text></g><g id="edge1" class="edge"><title>A-&gt;B</title><path fill="none" stroke="#000" d="M123.5,-58.22C116.67,-69.59 107.23,-85.32 98.43,-99.96"/><polygon fill="#000" stroke="#000" points="95.22 -98.52 93.07 -108.89 101.22 -102.12 95.22 -98.52"/></g><g id="node5" class="node"><title>E</title><ellipse cx="193.25" cy="-141.23" fill="none" stroke="#000" rx="27" ry="18"/><text x="193.25" y="-138.13" font-family="Noto Sans" font-size="12" text-anchor="middle">E</text></g><g id="edge4" class="edge"><title>A-&gt;E</title><path fill="none" stroke="#000" d="M143.15,-58.22C152.68,-73.81 167.2,-97.59 178.16,-115.54"/><polygon fill="#000" stroke="#000" points="175.32 -117.6 183.52 -124.31 181.3 -113.96 175.32 -117.6"/><text x="212.25" y="-80.4" font-family="Noto Sans" font-size="12" text-anchor="middle">&apos;Branch 1&apos; off of A</text></g><g id="node3" class="node"><title>C</title><ellipse cx="71.25" cy="-235.51" fill="none" stroke="#000" rx="27" ry="18"/><text x="71.25" y="-232.41" font-family="Noto Sans" font-size="12" text-anchor="middle">C</text></g><g id="edge2" class="edge"><title>B-&gt;C</title><path fill="none" stroke="#000" d="M73.2,-174.51C72.85,-185.23 72.46,-197.06 72.13,-207.35"/><polygon fill="#000" stroke="#000" points="68.63 -207.31 71.8 -217.42 75.63 -207.54 68.63 -207.31"/></g><g id="node4" class="node"><title>D</title><ellipse cx="132.25" cy="-329.79" fill="none" stroke="#000" rx="70.92" ry="33.47"/><text x="132.25" y="-339.69" font-family="Noto Sans" font-size="12" text-anchor="middle">D</text><text x="132.25" y="-326.69" font-family="Noto Sans" font-size="12" text-anchor="middle">Merge master</text><text x="132.25" y="-313.69" font-family="Noto Sans" font-size="12" text-anchor="middle">with &apos;Branch 1&apos;</text></g><g id="edge3" class="edge"><title>C-&gt;D</title><path fill="none" stroke="#000" d="M81.59,-252.16C88.34,-262.37 97.47,-276.18 106.12,-289.27"/><polygon fill="#000" stroke="#000" points="103.27 -291.3 111.71 -297.72 109.11 -287.44 103.27 -291.3"/></g><g id="node6" class="node"><title>F</title><ellipse cx="194.25" cy="-235.51" fill="none" stroke="#000" rx="77.56" ry="24.08"/><text x="194.25" y="-238.91" font-family="Noto Sans" font-size="12" text-anchor="middle">F</text><text x="194.25" y="-225.91" font-family="Noto Sans" font-size="12" text-anchor="middle">Commit to noop</text></g><g id="edge5" class="edge"><title>E-&gt;F</title><path fill="none" stroke="#000" d="M193.43,-159.59C193.56,-171.24 193.73,-186.96 193.88,-201"/><polygon fill="#000" stroke="#000" points="190.39 -201.35 193.99 -211.31 197.39 -201.27 190.39 -201.35"/></g><g id="edge6" class="edge"><title>F-&gt;D</title><path fill="none" stroke="#000" d="M178.92,-259.32C172.81,-268.41 165.6,-279.14 158.7,-289.41"/><polygon fill="#000" stroke="#000" points="155.68 -287.63 153.01 -297.88 161.49 -291.54 155.68 -287.63"/></g></g></svg>